<svg width="40" height="36" viewBox="0 0 40 36" fill="none" xmlns="http://www.w3.org/2000/svg">
<path fill-rule="evenodd" clip-rule="evenodd" d="M37.1127 28.5013C37.1731 28.5668 37.2237 28.6404 37.2621 28.7206L39.8649 34.125C40.12 34.6236 40.0074 35.2123 39.5809 35.6042C39.1547 35.9957 38.5049 36.109 37.947 35.889L31.8327 33.6419C31.736 33.6062 31.647 33.5577 31.5686 33.4992L37.1127 28.5013ZM8.98948 23.3305L14.1499 27.5836L13.8458 31.3345C13.7544 32.4604 12.8748 33.4064 11.6629 33.6853C11.2936 33.7795 4.32622 35.5475 2.67275 35.7028C2.37806 35.7308 2.05683 35.6774 1.75194 35.5567L4.29887 33.2103C4.60581 32.9274 4.6005 32.4726 4.28622 32.1955C3.97234 31.9188 3.46785 31.9236 3.16091 32.2069L0.601326 34.5651C0.436428 34.2652 0.360918 33.9429 0.394795 33.6497C0.56704 32.1587 2.52867 25.8785 2.63275 25.5452C2.94214 24.4524 3.99234 23.6594 5.24091 23.577L8.98948 23.3305ZM11.6629 33.6853L11.678 33.6817L11.6462 33.689C11.6519 33.6879 11.6576 33.6868 11.6629 33.6853ZM30.1682 32.732C30.1278 32.7051 30.089 32.675 30.0523 32.6418L21.3948 24.8372C23.4364 23.3614 25.627 21.6162 27.8466 19.6697L36.1445 27.1502C36.1809 27.1829 36.2139 27.2179 36.2441 27.2547L30.1682 32.732ZM10.0466 22.2575C12.1164 19.2021 15.7674 15.1476 20.3164 11.0475C26.0919 5.84067 31.7939 1.9426 35.2658 0.584491C36.3094 0.176065 37.1886 -0.0115895 37.8478 0.000552864C38.5217 0.0130632 39.0339 0.215068 39.3976 0.542912C39.7613 0.870757 39.9858 1.33254 39.9992 1.94002C40.0131 2.53426 39.8049 3.32646 39.3519 4.26768C37.845 7.39747 33.5209 12.5377 27.7454 17.7442C23.3266 21.7277 18.9564 24.9476 15.6046 26.8382L10.0466 22.2575ZM2.63275 25.5452C2.63153 25.5503 2.62989 25.5555 2.62867 25.5603L2.63724 25.5316L2.63275 25.5452ZM12.4478 16.7725L0.29602 5.81786C-0.0986733 5.46205 -0.0986733 4.88473 0.29602 4.52892L4.95887 0.325821C5.35356 -0.030355 5.99356 -0.030355 6.38866 0.325821L18.1805 10.9559C16.0217 12.9568 14.0858 14.9316 12.4478 16.7725Z" fill="#54A6BD"/>
</svg>
