<svg width="39" height="40" viewBox="0 0 39 40" fill="none" xmlns="http://www.w3.org/2000/svg">
<path d="M37.3707 4.29333C37.3585 4.28026 37.3451 4.26836 37.3307 4.25778V1.68178C37.3309 1.58426 37.3118 1.48766 37.2746 1.39753C37.2373 1.3074 37.1827 1.22551 37.1137 1.15656C37.0448 1.0876 36.9629 1.03293 36.8727 0.995696C36.7826 0.958458 36.686 0.93938 36.5885 0.939555H34.9441C34.8465 0.93938 34.7499 0.958458 34.6598 0.995696C34.5697 1.03293 34.4878 1.0876 34.4188 1.15656C34.3499 1.22551 34.2952 1.3074 34.258 1.39753C34.2207 1.48766 34.2017 1.58426 34.2018 1.68178V4.25111C34.186 4.26485 34.1711 4.2797 34.1574 4.29556C33.9459 4.50743 33.7786 4.75908 33.6649 5.03599C33.5512 5.31289 33.4936 5.60957 33.4952 5.90889V15.2222H33.5041V32.3733C33.5055 32.391 33.5085 32.4086 33.5129 32.4258H33.5058C33.9667 34.8307 35.1329 37.8271 35.7703 37.8271C36.4076 37.8271 37.5521 34.8756 38.0174 32.48V32.468L38.0263 32.4258H38.0218C38.0218 32.404 38.0263 32.3867 38.0263 32.3733V15.2222H38.0352V5.90667C38.0367 5.60715 37.9788 5.31031 37.8647 5.03336C37.7507 4.75642 37.5828 4.50487 37.3707 4.29333ZM29.8849 7.94933C29.8863 7.93953 29.8853 7.92955 29.8821 7.9202C29.8788 7.91086 29.8734 7.90241 29.8663 7.89556C29.8375 7.82915 29.7977 7.76813 29.7485 7.71511L22.2045 0.177778C22.1501 0.128264 22.0894 0.0861246 22.0241 0.0524445C22.0058 0.0524445 21.9872 0.0342223 21.9707 0.0342223C21.9188 0.0141605 21.8641 0.00260445 21.8085 0H0.602275C0.52245 0.00016933 0.443451 0.0161719 0.369852 0.0470812C0.296254 0.0779905 0.229518 0.123193 0.173508 0.18007C0.117499 0.236948 0.0733282 0.304371 0.0435544 0.378436C0.0137805 0.452501 -0.00100521 0.531737 5.30441e-05 0.611556V39.3884C0.000944575 39.5488 0.0643889 39.7024 0.176874 39.8166C0.289359 39.9308 0.441995 39.9966 0.602275 40H29.3267C29.4869 39.9963 29.6393 39.9304 29.7517 39.8162C29.8642 39.7021 29.9277 39.5487 29.9289 39.3884V8.14622C29.9234 8.13531 29.9204 8.12333 29.9201 8.11111C29.9208 8.05521 29.9088 7.99988 29.8849 7.94933ZM6.34183 4.81244H15.7001C15.8603 4.81675 16.0125 4.88342 16.1243 4.99827C16.2361 5.11311 16.2986 5.26706 16.2986 5.42733C16.2986 5.58761 16.2361 5.74155 16.1243 5.8564C16.0125 5.97124 15.8603 6.03791 15.7001 6.04222H6.34183C6.18161 6.03791 6.02941 5.97124 5.91761 5.8564C5.80581 5.74155 5.74325 5.58761 5.74325 5.42733C5.74325 5.26706 5.80581 5.11311 5.91761 4.99827C6.02941 4.88342 6.18161 4.81675 6.34183 4.81244ZM5.72716 9.12844C5.7288 8.96659 5.79432 8.81193 5.90944 8.69814C6.02456 8.58435 6.17996 8.52065 6.34183 8.52089H10.0525C10.2158 8.51887 10.3733 8.58169 10.4903 8.69559C10.6074 8.80948 10.6745 8.96514 10.6769 9.12844V12.856C10.6774 12.938 10.6615 13.0193 10.6302 13.0951C10.5989 13.1709 10.5529 13.2398 10.4948 13.2977C10.4367 13.3556 10.3677 13.4014 10.2918 13.4323C10.2158 13.4633 10.1345 13.4789 10.0525 13.4782H6.34183C6.26052 13.4781 6.18005 13.4618 6.10506 13.4304C6.03007 13.3989 5.96204 13.353 5.9049 13.2951C5.84776 13.2373 5.80264 13.1687 5.77213 13.0933C5.74162 13.018 5.72634 12.9373 5.72716 12.856V9.12844ZM6.34183 15.9418H21.8889C22.0546 15.9418 22.2134 16.0076 22.3305 16.1247C22.4476 16.2418 22.5134 16.4006 22.5134 16.5662C22.5134 16.7318 22.4476 16.8907 22.3305 17.0078C22.2134 17.1249 22.0546 17.1907 21.8889 17.1907H6.34183C6.17622 17.1907 6.01739 17.1249 5.90028 17.0078C5.78318 16.8907 5.71739 16.7318 5.71739 16.5662C5.71739 16.4006 5.78318 16.2418 5.90028 16.1247C6.01739 16.0076 6.17622 15.9418 6.34183 15.9418ZM5.72716 20.2747C5.72661 20.1942 5.7422 20.1145 5.77301 20.0402C5.80382 19.9659 5.84923 19.8985 5.90654 19.8421C5.96385 19.7856 6.03191 19.7413 6.10668 19.7116C6.18145 19.6819 6.26141 19.6675 6.34183 19.6693H10.0525C10.1336 19.6666 10.2144 19.6803 10.2902 19.7096C10.3659 19.7388 10.4349 19.783 10.4932 19.8395C10.5515 19.8959 10.5978 19.9636 10.6294 20.0384C10.6609 20.1131 10.6771 20.1935 10.6769 20.2747V23.9853C10.6774 24.0673 10.6615 24.1486 10.6302 24.2245C10.5989 24.3003 10.5529 24.3691 10.4948 24.427C10.4367 24.4849 10.3677 24.5307 10.2918 24.5617C10.2158 24.5927 10.1345 24.6083 10.0525 24.6076H6.34183C6.26052 24.6074 6.18005 24.5911 6.10506 24.5597C6.03007 24.5283 5.96204 24.4823 5.9049 24.4245C5.84776 24.3666 5.80264 24.298 5.77213 24.2227C5.74162 24.1473 5.72634 24.0666 5.72716 23.9853V20.2747ZM6.34183 27.088H18.7934C18.9568 27.088 19.1134 27.1529 19.229 27.2684C19.3445 27.3839 19.4094 27.5406 19.4094 27.704C19.4094 27.8674 19.3445 28.0241 19.229 28.1396C19.1134 28.2551 18.9568 28.32 18.7934 28.32H6.34183C6.17846 28.32 6.02178 28.2551 5.90625 28.1396C5.79073 28.0241 5.72583 27.8674 5.72583 27.704C5.72583 27.5406 5.79073 27.3839 5.90625 27.2684C6.02178 27.1529 6.17846 27.088 6.34183 27.088ZM10.6769 35.1324C10.6751 35.2975 10.6087 35.4552 10.492 35.5719C10.3753 35.6887 10.2175 35.755 10.0525 35.7569H6.34183C6.17825 35.7533 6.02251 35.6861 5.90773 35.5695C5.79294 35.4528 5.72817 35.2961 5.72716 35.1324V31.4222C5.72652 31.341 5.74192 31.2604 5.77249 31.1851C5.80306 31.1098 5.84819 31.0413 5.9053 30.9835C5.96241 30.9257 6.03036 30.8797 6.10527 30.8482C6.18018 30.8167 6.26057 30.8004 6.34183 30.8H10.0525C10.1344 30.7997 10.2155 30.8156 10.2913 30.8467C10.367 30.8779 10.4359 30.9236 10.4939 30.9815C10.5519 31.0393 10.598 31.108 10.6294 31.1836C10.6608 31.2592 10.6769 31.3403 10.6769 31.4222V35.1324ZM23.7436 33.8836H13.1458C12.9854 33.8792 12.8329 33.8125 12.721 33.6975C12.609 33.5825 12.5464 33.4283 12.5464 33.2678C12.5464 33.1073 12.609 32.9531 12.721 32.8381C12.8329 32.7231 12.9854 32.6563 13.1458 32.652H23.7432C23.9036 32.6563 24.056 32.7231 24.168 32.8381C24.28 32.9531 24.3426 33.1073 24.3426 33.2678C24.3426 33.4283 24.28 33.5825 24.168 33.6975C24.056 33.8125 23.9041 33.8792 23.7436 33.8836ZM23.7436 22.7542H13.1458C13.0643 22.7541 12.9837 22.7378 12.9085 22.7064C12.8333 22.6749 12.7651 22.6289 12.7078 22.5709C12.6505 22.5129 12.6053 22.4441 12.5748 22.3686C12.5442 22.293 12.5289 22.2122 12.5298 22.1307C12.5313 21.9674 12.5963 21.8111 12.711 21.695C12.8258 21.5788 12.9813 21.5119 13.1445 21.5084H23.7432C23.9065 21.5118 24.0621 21.5786 24.1769 21.6948C24.2917 21.811 24.3568 21.9673 24.3583 22.1307C24.3593 22.2122 24.3441 22.2931 24.3137 22.3687C24.2832 22.4443 24.2381 22.5132 24.1809 22.5713C24.1237 22.6294 24.0556 22.6756 23.9805 22.7072C23.9053 22.7388 23.8247 22.7553 23.7432 22.7556L23.7436 22.7542ZM23.7436 11.6249H13.1458C12.9821 11.6218 12.8261 11.5548 12.7111 11.4384C12.596 11.3219 12.531 11.1651 12.5298 11.0013C12.5289 10.92 12.5442 10.8393 12.5747 10.7639C12.6052 10.6885 12.6503 10.6199 12.7074 10.5621C12.7646 10.5042 12.8326 10.4583 12.9077 10.4269C12.9827 10.3955 13.0632 10.3792 13.1445 10.3791H23.7432C23.8245 10.3792 23.905 10.3954 23.9801 10.4268C24.0551 10.4582 24.1232 10.5042 24.1804 10.562C24.2376 10.6199 24.2827 10.6885 24.3133 10.7639C24.3438 10.8393 24.3591 10.92 24.3583 11.0013C24.3573 11.165 24.2924 11.3219 24.1776 11.4385C24.0627 11.5551 23.9068 11.6223 23.7432 11.6258L23.7436 11.6249ZM22.3743 7.55556V2.06844L27.8632 7.55556H22.3743Z" fill="#54A6BD"/>
</svg>
