<svg width="40" height="36" viewBox="0 0 40 36" fill="none" xmlns="http://www.w3.org/2000/svg">
<path d="M8 30H18V32H16C14.8 32 14 32.8 14 34C14 35.2 14.8 36 16 36H24C25.2 36 26 35.2 26 34C26 32.8 25.2 32 24 32H22V30H32C36.4 30 40 26.4 40 22V8C40 3.6 36.4 0 32 0H8C3.6 0 0 3.6 0 8V22C0 26.4 3.6 30 8 30ZM32 26H8C6.6 26 5.2 25.2 4.6 24H35.4C34.8 25.2 33.4 26 32 26ZM8 4H32C34.2 4 36 5.8 36 8V20H4V8C4 5.8 5.8 4 8 4Z" fill="#54A6BD"/>
<path d="M14.6 17.4C15 17.8 15.4 18 16 18C16.6 18 17 17.8 17.4 17.4C18.2 16.6 18.2 15.4 17.4 14.6L14.8 12L17.4 9.4C18.2 8.6 18.2 7.4 17.4 6.6C16.6 5.8 15.4 5.8 14.6 6.6L10.6 10.6C9.8 11.4 9.8 12.6 10.6 13.4L14.6 17.4ZM22.6 17.4C23 17.8 23.6 18 24 18C24.4 18 25 17.8 25.4 17.4L29.4 13.4C30.2 12.6 30.2 11.4 29.4 10.6L25.4 6.6C24.6 5.8 23.4 5.8 22.6 6.6C21.8 7.4 21.8 8.6 22.6 9.4L25.2 12L22.6 14.6C21.8 15.4 21.8 16.6 22.6 17.4Z" fill="#54A6BD"/>
</svg>
