<svg width="40" height="40" viewBox="0 0 40 40" fill="none" xmlns="http://www.w3.org/2000/svg">
<path d="M40 1.24605e-06C40 1.24605e-06 25.0219 -0.0350289 13.345 11.6419C12.8173 12.1756 12.3373 12.7544 11.9104 13.3717C9.84028 13.2066 6.6675 13.2666 5.04942 14.888C1.26277 18.6747 0 24.9869 0 24.9869L8.83106 23.7258V26.1646L13.8354 31.1689H16.2742L15.0115 40.0017C15.0115 40.0017 21.3237 38.7389 25.1103 34.9523C26.7301 33.3325 26.7901 30.1614 26.6266 28.0913C27.2443 27.6649 27.8232 27.1848 28.3565 26.6567C40.0334 14.9798 40 1.24605e-06 40 1.24605e-06ZM23.3521 13.3116C23.3421 12.8674 23.4209 12.4255 23.5839 12.0121C23.747 11.5987 23.991 11.2221 24.3016 10.9043C24.6122 10.5864 24.9832 10.3339 25.3928 10.1614C25.8024 9.98898 26.2423 9.90008 26.6867 9.89997C27.1311 9.89986 27.571 9.98853 27.9807 10.1608C28.3903 10.333 28.7614 10.5854 29.0722 10.9031C29.383 11.2207 29.6272 11.5973 29.7905 12.0106C29.9537 12.4239 30.0328 12.8657 30.0229 13.31C30.0037 14.1817 29.6439 15.0112 29.0207 15.621C28.3974 16.2307 27.5602 16.5723 26.6883 16.5725C25.8164 16.5727 24.9791 16.2316 24.3555 15.6221C23.732 15.0127 23.3718 14.1833 23.3521 13.3116Z" fill="#54A6BD"/>
<path d="M10.087 32.8554C8.55399 34.3884 6.61062 33.3825 6.61062 33.3825C6.61062 33.3825 5.66313 31.3807 7.13775 29.9061C7.26453 29.7793 7.41966 29.7076 7.56813 29.6209L6.54223 28.595C6.00676 28.7785 5.50132 29.0687 5.07428 29.4958C3.5763 30.9937 3.66304 36.3301 3.66304 36.3301C3.66304 36.3301 9.00105 36.4151 10.4974 34.9188C10.9244 34.4918 11.2147 33.9864 11.3981 33.4509L10.3739 32.4267C10.2855 32.5734 10.2138 32.7286 10.087 32.8554Z" fill="#54A6BD"/>
</svg>
