<svg width="40" height="36" viewBox="0 0 40 36" fill="none" xmlns="http://www.w3.org/2000/svg">
<path fill-rule="evenodd" clip-rule="evenodd" d="M20 0.5C20 0.22386 19.7761 0 19.5 0C19.2238 0 19 0.22386 19 0.5V3.22761C18.7195 3.49201 18.4772 3.97263 18.3015 4.5944L17.5 3.79289V2.5C17.5 2.36739 17.4473 2.24021 17.3535 2.14645L15.8535 0.64645C15.6583 0.45118 15.3417 0.45118 15.1464 0.64645C14.9512 0.84171 14.9512 1.15829 15.1464 1.35355L16.5 2.70711V4C16.5 4.1326 16.5527 4.2598 16.6464 4.3536L18.0712 5.7784C18.0615 5.8597 18.0526 5.9422 18.0448 6.0258L13.0376 6.8571C12.8811 7.5714 13.1314 9 15.3841 9C16.9332 9 17.6834 8.0542 18.0009 7.1382C18.005 7.4647 18.0239 7.7812 18.0556 8.0833L15.7 9.85C15.5191 9.9856 15.4518 10.2258 15.5358 10.4357L15.8527 11.228L14.8077 11.6635C14.5528 11.7697 14.4323 12.0624 14.5385 12.3173C14.6447 12.5722 14.9374 12.6927 15.1923 12.5865L16.6923 11.9615C16.9446 11.8564 17.0658 11.5681 16.9642 11.3143L16.6066 10.4201L18.2449 9.1913C18.2877 9.3655 18.3355 9.5301 18.3878 9.6839L18.0159 11.1251C18.0053 11.1659 18 11.2079 18 11.25V11.9922L17.5659 12.7519C17.4289 12.9917 17.5122 13.2971 17.7519 13.4341C17.9917 13.5711 18.2971 13.4878 18.4341 13.2481L18.9341 12.3731C18.9773 12.2975 19 12.212 19 12.125V11.3135L19.1152 10.8672C19.238 10.9538 19.367 11 19.5 11C19.6492 11 19.7933 10.9419 19.9293 10.8338L20 11.0725V12.125C20 12.212 20.0227 12.2975 20.0659 12.3731L20.5659 13.2481C20.7029 13.4878 21.0083 13.5711 21.2481 13.4341C21.4878 13.2971 21.5711 12.9917 21.4341 12.7519L21 11.9922V11C21 10.9519 20.9931 10.9041 20.9794 10.858L20.6225 9.6534C20.6625 9.5332 20.6997 9.4066 20.7341 9.2742L22.3886 10.4323L22.0358 11.3143C21.9342 11.5681 22.0554 11.8564 22.3077 11.9615L23.8077 12.5865C24.0626 12.6927 24.3553 12.5722 24.4615 12.3173C24.5677 12.0624 24.4472 11.7697 24.1923 11.6635L23.1473 11.228L23.4642 10.4357C23.5505 10.2201 23.4769 9.9735 23.2867 9.8404L20.9322 8.1922C20.9556 7.9922 20.9733 7.7854 20.9847 7.5732C21.3752 8.3309 22.1129 9 23.4159 9C25.6686 9 25.9189 7.5714 25.7624 6.8571L20.9583 6.0595C20.9497 5.9644 20.9398 5.8707 20.9287 5.7784L22.3535 4.3536C22.4473 4.2598 22.5 4.1326 22.5 4V2.70711L23.8535 1.35355C24.0488 1.15829 24.0488 0.84171 23.8535 0.64645C23.6583 0.45118 23.3417 0.45118 23.1464 0.64645L21.6464 2.14645C21.5527 2.24021 21.5 2.36739 21.5 2.5V3.79289L20.6985 4.5944C20.5227 3.97263 20.2805 3.49201 20 3.22761V0.5ZM15.3841 8C14.6338 8 14.3152 7.8112 14.1801 7.6811L16.8586 7.2364C16.8425 7.263 16.8257 7.2893 16.8083 7.3151C16.5596 7.683 16.1571 8 15.3841 8ZM24.6199 7.6811C24.4848 7.8112 24.1662 8 23.4159 8C22.6429 8 22.2404 7.683 21.9917 7.3151C21.9743 7.2893 21.9575 7.263 21.9414 7.2364L24.6199 7.6811Z" fill="#54A6BD"/>
<path d="M8 20H6C5.44772 20 5 20.4477 5 21C5 21.5523 5.44772 22 6 22H8V20ZM10 22H13V20H10V22ZM15 22H18V20H15V22ZM22 20C22.5523 20 23 20.4477 23 21C23 21.5523 22.5523 22 22 22H20V20H22Z" fill="#54A6BD"/>
<path fill-rule="evenodd" clip-rule="evenodd" d="M2 27C0.89543 27 0 26.1046 0 25V17C0 15.8954 0.89543 15 2 15H38C39.1046 15 40 15.8954 40 17V25C40 26.1046 39.1046 27 38 27H2ZM34 19C35.1046 19 36 19.8954 36 21C36 22.1046 35.1046 23 34 23C32.8954 23 32 22.1046 32 21C32 19.8954 32.8954 19 34 19ZM27 21C27 21.8284 27.6716 22.5 28.5 22.5C29.3284 22.5 30 21.8284 30 21C30 20.1716 29.3284 19.5 28.5 19.5C27.6716 19.5 27 20.1716 27 21ZM3 21C3 22.6569 4.34315 24 6 24H22C23.6569 24 25 22.6569 25 21C25 19.3431 23.6569 18 22 18H6C4.34315 18 3 19.3431 3 21Z" fill="#54A6BD"/>
<path d="M3.85069 8.105C4.08818 8 4.34533 7.9738 4.59267 8.0263C4.84062 8.0789 5.07784 8.2107 5.27038 8.4161C5.64805 8.819 6.2809 8.8395 6.6838 8.4619C7.0868 8.0842 7.1073 7.4514 6.7296 7.0484C6.2668 6.5546 5.66897 6.2101 5.00787 6.0698C4.34616 5.9294 3.66106 6.0022 3.04224 6.2756C2.42437 6.5487 1.90684 7.0063 1.54737 7.5803C1.18825 8.1538 1 8.8217 1 9.5C1 10.1784 1.18825 10.8463 1.54737 11.4197C1.90684 11.9937 2.42437 12.4513 3.04224 12.7244C3.66105 12.9978 4.34616 13.0706 5.00787 12.9302C5.66897 12.7899 6.2668 12.4455 6.7296 11.9516C7.1073 11.5487 7.0868 10.9158 6.6838 10.5381C6.2809 10.1605 5.64805 10.181 5.27038 10.5839C5.07784 10.7893 4.84062 10.9211 4.59267 10.9738C4.34534 11.0262 4.08818 11 3.85069 10.895C3.61225 10.7897 3.39788 10.6064 3.24241 10.3582C3.08659 10.1094 3 9.8106 3 9.5C3 9.1894 3.08659 8.8907 3.24241 8.6418C3.39788 8.3936 3.61225 8.2103 3.85069 8.105Z" fill="#54A6BD"/>
<path fill-rule="evenodd" clip-rule="evenodd" d="M9 30C9 29.4477 9.4477 29 10 29H12.5C13.8807 29 15 30.1193 15 31.5C15 32.8807 13.8807 34 12.5 34H11V35C11 35.5523 10.5523 36 10 36C9.4477 36 9 35.5523 9 35V30ZM11 32H12.5C12.7761 32 13 31.7761 13 31.5C13 31.2239 12.7761 31 12.5 31H11V32ZM30 6C29.4477 6 29 6.4477 29 7V12C29 12.5523 29.4477 13 30 13C30.5523 13 31 12.5523 31 12V11H32.5C33.8807 11 35 9.8807 35 8.5C35 7.1193 33.8807 6 32.5 6H30ZM32.5 9H31V8H32.5C32.7761 8 33 8.2239 33 8.5C33 8.7761 32.7761 9 32.5 9Z" fill="#54A6BD"/>
<path d="M18.5002 36C18.917 36 19.2901 35.7414 19.4365 35.3511L20.9366 31.3511C21.1305 30.834 20.8685 30.2576 20.3514 30.0637C19.8342 29.8697 19.2578 30.1317 19.0639 30.6489L18.5002 32.152L17.9366 30.6489C17.7426 30.1318 17.1662 29.8698 16.6491 30.0637C16.132 30.2576 15.87 30.834 16.0639 31.3511L17.5638 35.3511C17.7102 35.7414 18.0833 36 18.5002 36ZM38.0002 12V10C38.5525 10 39.0002 9.5523 39.0002 9C39.0002 8.4479 38.5528 8.0003 38.0007 8C38.5528 7.9997 39.0002 7.5521 39.0002 7C39.0002 6.4477 38.5525 6 38.0002 6C37.2743 6 36.7241 6.3249 36.3887 6.7907C36.09 7.2055 36.0002 7.6733 36.0002 8C35.4479 8 35.0002 8.4477 35.0002 9C35.0002 9.5523 35.4479 10 36.0002 10V12C36.0002 12.5523 36.4479 13 37.0002 13C37.5525 13 38.0002 12.5523 38.0002 12Z" fill="#54A6BD"/>
</svg>
