<svg width="24" height="35" viewBox="0 0 24 35" fill="none" xmlns="http://www.w3.org/2000/svg">
<path d="M15.6364 27.2727V30.1817C15.6364 30.9533 15.3299 31.6932 14.7843 32.2388C14.2388 32.7843 13.4988 33.0908 12.7273 33.0908H11.2728C10.5012 33.0908 9.76129 32.7843 9.21574 32.2388C8.67018 31.6932 8.36369 30.9533 8.36369 30.1817V27.2727M15.6364 27.2727H8.36369M15.6364 27.2727V26.8654C15.6546 25.6362 15.9499 24.4271 16.5001 23.3278C17.0504 22.2286 17.8415 21.2676 18.8145 20.5163C20.1092 19.4809 21.1509 18.1639 21.8603 16.6656C22.5698 15.1672 22.9285 13.5269 22.9091 11.8691C22.8867 10.0185 22.3938 8.2039 21.4769 6.59621C20.5599 4.98852 19.249 3.64056 17.6675 2.67916C16.086 1.71777 14.2859 1.17455 12.4365 1.10063C10.5872 1.0267 8.74949 1.4245 7.09628 2.2566C5.44307 3.0887 4.02875 4.32772 2.9864 5.85709C1.94404 7.38646 1.30793 9.15589 1.13792 10.9989C0.967911 12.8418 1.26959 14.6978 2.01457 16.392C2.75956 18.0863 3.92335 19.5631 5.39643 20.6836C6.33237 21.4171 7.08685 22.3562 7.60141 23.4283C8.11598 24.5003 8.37681 25.6764 8.36369 26.8654V27.2727M10.5455 27.2727V18.5454L6.18188 14.1818M13.4546 27.2727V18.5454L17.8182 14.1818" stroke="#54A6BD" stroke-width="1.86181" stroke-linecap="round" stroke-linejoin="round"/>
</svg>
